<svg width="20" height="20" viewBox="0 0 20 20" fill="none" xmlns="http://www.w3.org/2000/svg">
<path fill-rule="evenodd" clip-rule="evenodd" d="M16.9407 10.0011L14.1282 10.0032C14.174 10.1336 14.1995 10.274 14.1999 10.4198V10.6865C14.1999 11.0977 14.002 11.4627 13.6957 11.6907C13.8165 11.8823 13.8861 12.1098 13.8865 12.3532V12.6198C13.8867 12.784 13.8545 12.9466 13.7918 13.0984C13.7291 13.2501 13.6372 13.388 13.5212 13.5042C13.4052 13.6204 13.2674 13.7126 13.1158 13.7756C12.9641 13.8385 12.8016 13.871 12.6374 13.8711H12.412C12.4578 14.0015 12.4832 14.1419 12.4832 14.2877L12.4836 14.5544C12.4838 14.7186 12.4516 14.8812 12.3889 15.033C12.3262 15.1847 12.2342 15.3226 12.1182 15.4388C12.0022 15.555 11.8645 15.6472 11.7128 15.7102C11.5612 15.7731 11.3986 15.8056 11.2345 15.8057L6.62487 15.8094C3.88404 15.8115 1.66029 13.5915 1.65821 10.8507C1.65726 9.83122 1.97031 8.83622 2.55479 8.00095C3.13926 7.16569 3.9668 6.5307 4.92487 6.18233L9.91696 4.36775C10.1588 4.27958 10.421 4.26287 10.6721 4.31961C10.9232 4.37635 11.1527 4.50415 11.3332 4.68775C12.0182 5.38358 11.7549 6.55441 10.8382 6.89108L9.88612 7.23983L16.9386 7.23441C17.3055 7.23414 17.6575 7.37961 17.9171 7.63884C18.1767 7.89807 18.3227 8.24982 18.323 8.6167C18.3233 8.98359 18.1778 9.33555 17.9186 9.59517C17.6593 9.85479 17.3076 10.0008 16.9407 10.0011ZM16.939 8.06775C17.0849 8.06764 17.2248 8.12548 17.3281 8.22854C17.4313 8.33161 17.4893 8.47146 17.4895 8.61733C17.4896 8.7632 17.4317 8.90314 17.3287 9.00636C17.2256 9.10958 17.0857 9.16764 16.9399 9.16775H16.6557L16.6565 9.13691V9.13441C16.6565 8.78941 16.2832 8.50941 15.8232 8.51025C15.3628 8.51025 14.9899 8.79066 14.9899 9.13566C14.9899 9.14677 14.9903 9.15789 14.9911 9.169L10.6224 9.17275L10.6232 10.0061L12.9495 10.004C13.06 10.004 13.1659 10.0479 13.2441 10.126C13.3222 10.2042 13.3661 10.3102 13.3661 10.4207L13.3665 10.6873C13.3665 10.7978 13.3226 10.9038 13.2445 10.982C13.1664 11.0601 13.0604 11.104 12.9499 11.104L10.624 11.1061L10.6249 11.9394L12.6361 11.9377C12.7466 11.9377 12.8526 11.9816 12.9307 12.0598C13.0089 12.1379 13.0528 12.2439 13.0528 12.3544L13.0532 12.6207C13.0532 12.7312 13.0093 12.8371 12.9312 12.9153C12.853 12.9934 12.747 13.0373 12.6365 13.0373L9.6757 13.0402L9.67654 13.8736L11.2332 13.8723C11.3436 13.8723 11.4496 13.9162 11.5277 13.9942C11.6058 14.0723 11.6498 14.1781 11.6499 14.2886L11.6503 14.5552C11.6503 14.6658 11.6064 14.7717 11.5282 14.8499C11.4501 14.928 11.3441 14.9719 11.2336 14.9719L6.62404 14.9761C4.34362 14.9777 2.49321 13.1302 2.49154 10.8498C2.49082 10.0016 2.75136 9.1737 3.23772 8.47875C3.72408 7.78379 4.41268 7.25549 5.20987 6.96566L10.2015 5.15108C10.3273 5.10968 10.4642 5.11881 10.5834 5.17654C10.7025 5.23426 10.7946 5.33606 10.84 5.46041C10.8855 5.58476 10.8808 5.72192 10.8269 5.84288C10.7731 5.96383 10.6743 6.05912 10.5515 6.10858L9.59904 6.45775C8.72446 6.77858 8.95529 8.07441 9.88654 8.07316L16.939 8.06775Z" fill="#E95D5C"/>
<path d="M15.827 13.9266C16.527 13.9266 17.0766 13.4016 17.0762 12.7349C17.0753 12.1162 15.8241 10.5933 15.8241 10.5933C15.8241 10.5933 14.5753 12.0708 14.5762 12.7374C14.5762 13.4041 15.127 13.9274 15.827 13.9266Z" fill="#E95D5C"/>
</svg>
