<svg width="35" height="35" viewBox="0 0 35 35" fill="none" xmlns="http://www.w3.org/2000/svg">
<path d="M13.244 27.386C13.3294 27.3843 13.4149 27.3826 13.503 27.3809C14.0716 27.3791 14.4942 27.4163 14.9081 27.8271C14.9398 27.8761 14.9715 27.9251 15.0042 27.9756C15.0373 28.0239 15.0705 28.0722 15.1046 28.1219C15.1751 28.3003 15.1751 28.3003 15.1751 28.8472C16.7993 28.8472 18.4235 28.8472 20.097 28.8472C20.1195 28.6441 20.1421 28.4411 20.1653 28.2319C20.3857 27.8148 20.6765 27.561 21.1224 27.4116C21.4251 27.3815 21.7283 27.3863 22.0324 27.386C22.1143 27.3843 22.1962 27.3826 22.2806 27.3809C22.8482 27.379 23.2512 27.4285 23.673 27.8389C23.9979 28.3683 24.0247 28.8318 24.0231 29.4405C24.0235 29.5231 24.0238 29.6057 24.0242 29.6907C24.0246 29.8648 24.0245 30.0389 24.024 30.213C24.0234 30.4779 24.0253 30.7428 24.0275 31.0077C24.0276 31.1774 24.0276 31.3472 24.0274 31.5169C24.0282 31.5954 24.0289 31.6739 24.0297 31.7548C24.025 32.2988 23.9584 32.8215 23.5809 33.2395C23.5352 33.2691 23.4894 33.2986 23.4423 33.329C23.3964 33.3601 23.3505 33.3912 23.3032 33.4232C22.9139 33.6399 22.4653 33.5848 22.0324 33.5896C21.9466 33.5922 21.8608 33.5947 21.7725 33.5973C21.2597 33.6022 20.8984 33.5711 20.5071 33.2222C20.2086 32.9158 20.097 32.6233 20.097 32.1968C18.4728 32.1968 16.8485 32.1968 15.1751 32.1968C15.1751 32.3547 15.1751 32.5126 15.1751 32.6753C15.1046 32.847 15.1046 32.847 15.0042 32.9957C14.9725 33.0453 14.9408 33.095 14.9081 33.1461C14.5708 33.4865 14.2379 33.5794 13.7628 33.6003C13.5941 33.601 13.4254 33.6003 13.2568 33.5982C13.172 33.5992 13.0871 33.6003 12.9998 33.6014C12.4529 33.599 12.123 33.5567 11.7088 33.1861C11.4367 32.8391 11.3304 32.572 11.3271 32.1319C11.3263 32.0516 11.3254 31.9713 11.3245 31.8885C11.3243 31.7592 11.3243 31.7592 11.324 31.6272C11.3236 31.538 11.3231 31.4487 11.3226 31.3567C11.3218 31.168 11.3216 30.9792 11.3217 30.7905C11.3217 30.5498 11.3198 30.3092 11.3174 30.0686C11.3155 29.8376 11.3156 29.6066 11.3155 29.3756C11.3145 29.2898 11.3135 29.204 11.3125 29.1156C11.3152 28.5975 11.3437 28.1793 11.7194 27.7868C12.205 27.3605 12.6206 27.3866 13.244 27.386ZM12.5091 28.6421C12.5023 28.7571 12.5003 28.8724 12.5003 28.9876C12.5 29.0613 12.4998 29.135 12.4996 29.2109C12.4997 29.2911 12.4999 29.3713 12.5 29.4539C12.5 29.5355 12.4999 29.6172 12.4998 29.7014C12.4998 29.8745 12.4999 30.0475 12.5002 30.2206C12.5005 30.4866 12.5002 30.7526 12.4997 31.0187C12.4998 31.1863 12.4999 31.354 12.5 31.5217C12.4999 31.6019 12.4997 31.6821 12.4996 31.7647C12.4998 31.8384 12.5 31.9121 12.5003 31.988C12.5003 32.0532 12.5004 32.1184 12.5004 32.1856C12.4926 32.3321 12.4926 32.3321 12.5775 32.4019C12.6784 32.4086 12.7796 32.4108 12.8808 32.4109C12.9725 32.4111 12.9725 32.4111 13.0661 32.4112C13.1626 32.4108 13.1626 32.4108 13.261 32.4104C13.3254 32.4107 13.3897 32.4109 13.456 32.4112C13.5171 32.4111 13.5783 32.411 13.6413 32.4109C13.726 32.4108 13.726 32.4108 13.8125 32.4107C13.9451 32.4164 13.9451 32.4164 14.013 32.3335C14.0198 32.2185 14.0218 32.1032 14.0218 31.988C14.0221 31.9143 14.0223 31.8406 14.0225 31.7647C14.0224 31.6845 14.0222 31.6043 14.0221 31.5217C14.0221 31.4401 14.0222 31.3584 14.0223 31.2742C14.0223 31.1011 14.0222 30.9281 14.0219 30.755C14.0215 30.489 14.0219 30.223 14.0223 29.9569C14.0223 29.7893 14.0222 29.6216 14.0221 29.4539C14.0222 29.3737 14.0224 29.2935 14.0225 29.2109C14.0223 29.1372 14.0221 29.0635 14.0218 28.9876C14.0218 28.9224 14.0217 28.8572 14.0217 28.79C14.0295 28.6435 14.0295 28.6435 13.9446 28.5737C13.8437 28.567 13.7425 28.5648 13.6413 28.5647C13.5801 28.5646 13.519 28.5645 13.456 28.5644C13.3595 28.5648 13.3595 28.5648 13.261 28.5652C13.1967 28.5649 13.1324 28.5647 13.0661 28.5644C12.9744 28.5645 12.9744 28.5645 12.8808 28.5647C12.7961 28.5648 12.7961 28.5648 12.7096 28.5649C12.577 28.5592 12.577 28.5592 12.5091 28.6421ZM21.2591 28.7105C21.2386 28.867 21.2386 28.867 21.2425 29.0501C21.2423 29.1208 21.2421 29.1915 21.2419 29.2644C21.2423 29.341 21.2428 29.4176 21.2433 29.4966C21.2434 29.575 21.2434 29.6534 21.2434 29.7341C21.2436 29.9001 21.2442 30.066 21.245 30.232C21.2463 30.4867 21.2464 30.7415 21.2464 30.9962C21.2467 31.1572 21.2471 31.3181 21.2476 31.479C21.2477 31.5556 21.2478 31.6322 21.2478 31.7112C21.2483 31.7819 21.2487 31.8526 21.2492 31.9255C21.2494 31.9879 21.2497 32.0503 21.25 32.1147C21.2494 32.2681 21.2494 32.2681 21.3275 32.4019C21.5525 32.4078 21.7774 32.4115 22.0025 32.4147C22.0986 32.4173 22.0986 32.4173 22.1966 32.4199C22.2579 32.4205 22.3191 32.4212 22.3822 32.4219C22.4671 32.4235 22.4671 32.4235 22.5536 32.4251C22.6002 32.4175 22.6467 32.4098 22.6946 32.4019C22.8424 32.1802 22.8486 32.119 22.8491 31.863C22.8495 31.7952 22.8499 31.7275 22.8504 31.6577C22.8501 31.5846 22.8498 31.5116 22.8495 31.4363C22.8497 31.3612 22.8498 31.2861 22.8499 31.2087C22.85 31.0499 22.8498 30.8911 22.8492 30.7323C22.8485 30.4888 22.8492 30.2453 22.8501 30.0018C22.85 29.8476 22.8498 29.6935 22.8495 29.5393C22.8498 29.4663 22.8501 29.3932 22.8504 29.3179C22.8499 29.2502 22.8495 29.1824 22.8491 29.1126C22.8489 29.053 22.8488 28.9933 22.8487 28.9319C22.841 28.7594 22.841 28.7594 22.6946 28.5737C22.5584 28.5432 22.5584 28.5432 22.402 28.5489C22.3157 28.549 22.3157 28.549 22.2276 28.549C22.1674 28.5501 22.1072 28.5512 22.0452 28.5524C21.985 28.5522 21.9249 28.5519 21.8628 28.5517C21.5255 28.5356 21.5255 28.5356 21.2591 28.7105ZM15.1751 30.0093C15.1751 30.3477 15.1751 30.686 15.1751 31.0347C16.7993 31.0347 18.4235 31.0347 20.097 31.0347C20.097 30.6963 20.097 30.3579 20.097 30.0093C18.4728 30.0093 16.8485 30.0093 15.1751 30.0093Z" fill="white"/>
<path d="M19.6262 12.817C20.1843 13.2656 20.6091 13.9146 20.7136 14.629C20.8089 15.7218 20.5838 16.4561 19.9616 17.3634C19.9165 17.4311 19.8714 17.4987 19.8249 17.5685C19.8746 17.5951 19.9243 17.6217 19.9755 17.6491C21.286 18.3783 22.1846 19.4182 22.6944 20.8294C22.8106 21.2727 22.7905 21.724 22.5806 22.1357C22.2605 22.5771 21.8567 22.7165 21.3356 22.8126C20.7643 22.8902 20.1757 22.8612 19.6006 22.8594C19.4459 22.8595 19.2912 22.8597 19.1364 22.86C18.8133 22.8603 18.4902 22.8598 18.167 22.8589C17.7547 22.8577 17.3424 22.8584 16.9301 22.8596C16.6109 22.8604 16.2917 22.8601 15.9726 22.8596C15.8206 22.8595 15.6687 22.8596 15.5167 22.8601C13.4874 22.8651 13.4874 22.8651 12.9206 22.3536C12.6232 22.0189 12.5228 21.7093 12.5462 21.2631C12.7468 19.9809 13.5802 18.8815 14.5858 18.1036C14.8823 17.8983 15.1963 17.7301 15.5183 17.5685C15.4934 17.5385 15.4686 17.5086 15.443 17.4777C14.8418 16.7193 14.4685 15.8799 14.5612 14.9025C14.7254 13.9764 15.0874 13.2994 15.8358 12.7091C17.0335 11.8969 18.4677 11.9913 19.6262 12.817ZM16.1335 14.0138C15.8426 14.4913 15.6554 14.9509 15.7233 15.5177C15.8778 16.1095 16.09 16.5266 16.6077 16.8678C17.1097 17.1585 17.5669 17.2282 18.1384 17.1313C18.6677 16.9879 19.1007 16.6188 19.3806 16.15C19.6071 15.6591 19.6466 15.0974 19.4967 14.5748C19.2623 14.0553 18.8547 13.6304 18.3295 13.3986C17.5452 13.1605 16.6649 13.3756 16.1335 14.0138ZM14.698 19.5509C14.3058 20.0321 13.9093 20.5877 13.7409 21.1915C13.7618 21.3783 13.7618 21.3783 13.8093 21.5333C14.1746 21.6837 14.4979 21.6895 14.8859 21.6877C14.9849 21.6881 14.9849 21.6881 15.0858 21.6885C15.3032 21.6891 15.5206 21.6887 15.738 21.6882C15.8896 21.6883 16.0411 21.6884 16.1926 21.6886C16.51 21.6888 16.8274 21.6885 17.1447 21.6879C17.551 21.6871 17.9572 21.6875 18.3634 21.6883C18.6763 21.6888 18.9892 21.6887 19.302 21.6883C19.4518 21.6882 19.6016 21.6884 19.7513 21.6887C19.9609 21.689 20.1705 21.6885 20.38 21.6877C20.4416 21.688 20.5032 21.6883 20.5666 21.6886C20.9133 21.6862 21.2098 21.6622 21.5339 21.5333C21.655 21.1699 21.4206 20.8389 21.2605 20.5079C20.7031 19.4774 19.8606 18.7636 18.7354 18.4211C17.2495 18.0806 15.7825 18.4631 14.698 19.5509Z" fill="white"/>
<path d="M14.4272 1.42585C14.4834 1.42546 14.5395 1.42507 14.5974 1.42467C14.6587 1.4246 14.7201 1.42452 14.7833 1.42444C14.8482 1.4241 14.913 1.42376 14.9798 1.42341C15.1945 1.42241 15.4092 1.42195 15.624 1.42157C15.7731 1.42118 15.9221 1.42078 16.0712 1.42039C16.384 1.41967 16.6967 1.41927 17.0094 1.41903C17.4102 1.41866 17.811 1.41701 18.2119 1.41507C18.5199 1.4138 18.8279 1.41344 19.1359 1.41334C19.2836 1.41313 19.4314 1.41258 19.5792 1.41168C19.7859 1.41052 19.9925 1.41064 20.1992 1.41109C20.2603 1.41046 20.3214 1.40983 20.3843 1.40918C20.7414 1.41158 20.9945 1.44355 21.2599 1.70889C21.3355 2.38342 21.1692 3.05995 21.0452 3.71909C21.0228 3.84035 21.0005 3.96161 20.9782 4.08289C20.9315 4.336 20.8843 4.58902 20.8368 4.84197C20.7763 5.16426 20.717 5.48674 20.658 5.80931C20.6122 6.05947 20.5657 6.30952 20.519 6.55953C20.4969 6.67831 20.475 6.79713 20.4533 6.91598C20.143 8.60923 20.143 8.60923 19.7773 8.95926C19.3098 9.23274 18.8002 9.24913 18.2692 9.24658C18.2078 9.24671 18.1464 9.24684 18.0831 9.24698C17.9542 9.24707 17.8253 9.24682 17.6964 9.24625C17.5006 9.24552 17.3049 9.24624 17.1092 9.24712C16.9831 9.24703 16.8571 9.24685 16.7311 9.24658C16.6734 9.24686 16.6157 9.24714 16.5562 9.24742C16.0643 9.2436 15.5001 9.22458 15.1252 8.86571C14.7001 8.29332 14.6397 7.42391 14.5147 6.73972C14.4922 6.61844 14.4696 6.49717 14.4469 6.37591C14.3999 6.12296 14.3533 5.86993 14.307 5.61683C14.248 5.29421 14.1878 4.97182 14.1273 4.64949C14.0804 4.39951 14.0343 4.14941 13.9883 3.89927C13.9664 3.78041 13.9442 3.66159 13.9219 3.54282C13.6573 2.13145 13.6573 2.13145 13.7403 1.70889C13.9276 1.46771 14.133 1.42708 14.4272 1.42585ZM14.9708 2.59756C15.0385 2.93594 15.1062 3.27432 15.1759 3.62295C15.338 3.60886 15.5002 3.59476 15.6672 3.58023C16.5065 3.52352 17.2382 3.69657 18.0305 3.9625C18.5759 4.13894 19.088 4.17655 19.6321 3.97063C19.7774 3.89887 19.7774 3.89887 19.8542 3.69559C19.8733 3.55812 19.8733 3.55812 19.8927 3.41788C19.9378 3.14717 19.9829 2.87647 20.0294 2.59756C18.3601 2.59756 16.6907 2.59756 14.9708 2.59756ZM15.381 4.7167C15.4687 5.37118 15.5744 6.02031 15.6957 6.66927C15.7232 6.81688 15.75 6.96461 15.7767 7.11235C15.7943 7.20702 15.8119 7.30169 15.8296 7.39634C15.8452 7.48082 15.8608 7.5653 15.8768 7.65234C15.9177 7.87132 15.9177 7.87132 16.0646 8.06631C16.1927 8.09749 16.1927 8.09749 16.3415 8.09285C16.427 8.09382 16.427 8.09382 16.5143 8.09481C16.576 8.09439 16.6376 8.09398 16.7012 8.09355C16.7644 8.09375 16.8276 8.09394 16.8927 8.09415C17.0265 8.09429 17.1603 8.09391 17.294 8.09305C17.4993 8.09195 17.7045 8.09304 17.9097 8.09435C18.0395 8.09422 18.1693 8.09395 18.2991 8.09355C18.3916 8.09417 18.3916 8.09417 18.4859 8.09481C18.543 8.09416 18.6 8.09352 18.6588 8.09285C18.709 8.09269 18.7593 8.09252 18.8111 8.09236C18.9641 8.07555 18.9641 8.07555 19.0724 7.86124C19.1169 7.67154 19.1557 7.48423 19.1904 7.29273C19.206 7.20944 19.206 7.20944 19.222 7.12447C19.2439 7.00724 19.2656 6.88996 19.2871 6.77264C19.3201 6.59268 19.3537 6.41285 19.3875 6.23303C19.4087 6.11915 19.4299 6.00526 19.451 5.89136C19.4611 5.83739 19.4711 5.78341 19.4814 5.7278C19.5325 5.46325 19.5325 5.46325 19.5509 5.19522C19.4515 5.19998 19.4515 5.19998 19.3501 5.20483C18.5295 5.23159 17.8139 5.0906 17.043 4.80643C16.5028 4.61669 15.9388 4.632 15.381 4.7167Z" fill="white"/>
<path d="M30.8976 12.4418C31.1169 12.5918 31.1634 12.6754 31.2137 12.9374C31.1633 13.2401 31.0571 13.3682 30.8658 13.5993C30.7065 13.8138 30.6372 14.0343 30.5558 14.2875C30.6265 14.2777 30.6265 14.2777 30.6986 14.2677C31.229 14.2051 31.6517 14.2174 32.1323 14.4626C32.8652 15.0708 33.1853 15.7404 33.2902 16.68C33.3788 17.8089 33.0736 18.8594 32.425 19.7803C32.0667 20.1789 31.4908 20.4759 30.9659 20.5765C30.7949 20.5846 30.6259 20.5894 30.4548 20.5904C30.3805 20.591 30.3805 20.591 30.3046 20.5916C30.1997 20.5922 30.0948 20.5927 29.9899 20.593C29.8314 20.5936 29.6731 20.5957 29.5146 20.5979C28.6007 20.6045 27.9604 20.4824 27.2855 19.8419C26.5346 19.0517 26.2822 18.0134 26.2933 16.9471C26.3172 16.247 26.471 15.6219 26.8644 15.0394C26.9137 14.9661 26.9631 14.8928 27.0139 14.8173C27.4036 14.4362 27.8621 14.2452 28.4049 14.2135C28.7235 14.2241 29.0389 14.281 29.3253 14.4242C29.331 14.3368 29.3366 14.2494 29.3424 14.1593C29.409 13.5708 29.652 12.9368 30.1227 12.5545C30.3988 12.3756 30.5879 12.3317 30.8976 12.4418ZM27.9581 15.5863C27.5429 15.9778 27.4674 16.5305 27.4497 17.0774C27.4681 17.8115 27.6734 18.5127 28.1632 19.0726C28.5201 19.3828 28.8646 19.4359 29.3253 19.4144C29.4836 19.397 29.641 19.3773 29.7985 19.3543C29.953 19.3453 30.0655 19.3735 30.214 19.4144C30.6967 19.4461 31.0342 19.3803 31.4188 19.0598C31.947 18.4344 32.1751 17.7339 32.143 16.9081C32.0956 16.4015 31.9743 15.9881 31.6495 15.5863C31.3716 15.401 31.1557 15.4053 30.8292 15.4496C30.554 15.5504 30.3203 15.6977 30.0773 15.8597C29.6146 15.9258 29.3556 15.789 28.9638 15.546C28.5773 15.3449 28.3227 15.3485 27.9581 15.5863Z" fill="white"/>
<path d="M5.50313 14.1694C5.67574 14.2368 5.67574 14.2368 5.84787 14.1598C5.90488 14.1271 5.96189 14.0944 6.02063 14.0607C6.57903 13.7466 7.16453 13.7272 7.79451 13.8481C8.37739 14.0311 8.832 14.3895 9.15555 14.9077C9.55787 15.6855 9.60965 16.4436 9.37291 17.2899C9.13179 17.9628 8.7485 18.5441 8.27222 19.0723C8.24213 19.1057 8.21204 19.1392 8.18103 19.1737C7.55044 19.8642 6.59342 20.8736 5.63611 21.0248C5.21478 21.0108 4.9089 20.749 4.58082 20.5078C4.54322 20.4804 4.50563 20.4529 4.46689 20.4246C3.21675 19.5026 2.02382 18.3574 1.72921 16.7614C1.63638 16.0467 1.75155 15.3286 2.17969 14.7315C3.06534 13.6775 4.30469 13.5551 5.50313 14.1694ZM3.17411 15.3745C2.93267 15.7463 2.81559 16.0954 2.87183 16.543C3.00875 17.1278 3.24731 17.5829 3.62378 18.0469C3.67066 18.1058 3.71754 18.1646 3.76584 18.2253C4.24878 18.7936 4.95481 19.516 5.67457 19.7559C5.82026 19.6645 5.94738 19.5729 6.08045 19.4653C6.1196 19.4343 6.15874 19.4032 6.19908 19.3712C6.32154 19.2728 6.44263 19.1729 6.56324 19.0723C6.60013 19.0415 6.63702 19.0107 6.67502 18.979C7.43258 18.3375 8.25453 17.5066 8.35447 16.4669C8.36403 16.0184 8.25892 15.7115 8.01587 15.3296C7.74923 15.063 7.48459 14.9819 7.11438 14.9408C6.70292 14.9583 6.37772 15.1542 6.08472 15.4321C5.8748 15.5896 5.74384 15.6444 5.47963 15.6292C5.23119 15.556 5.05739 15.3953 4.86627 15.2255C4.5912 15.0072 4.32531 14.9379 3.97359 14.9499C3.6479 14.9968 3.38555 15.1191 3.17411 15.3745Z" fill="white"/>
<path d="M23.9254 5.26416C24.1133 5.34355 24.2775 5.44985 24.4466 5.56323C24.4942 5.59417 24.5417 5.62511 24.5907 5.65699C25.3537 6.1602 26.0411 6.72903 26.701 7.36047C26.7824 7.43823 26.8648 7.51501 26.9473 7.59158C27.8179 8.42136 28.5149 9.47792 29.0908 10.5278C29.1136 10.5688 29.1365 10.6097 29.1601 10.6518C29.3066 10.9281 29.3731 11.1733 29.3941 11.4849C29.3014 11.7303 29.2307 11.8054 28.9968 11.9249C28.7227 11.9733 28.6174 11.9542 28.3687 11.8267C28.2249 11.634 28.1242 11.4224 28.0184 11.2072C27.4446 10.1063 26.7437 9.17523 25.8664 8.29921C25.7713 8.20392 25.6771 8.10757 25.5857 8.00868C24.9808 7.36396 24.2168 6.8749 23.4676 6.41374C23.1804 6.2351 23.1804 6.2351 23.105 6.08447C23.0715 5.78825 23.0724 5.65244 23.246 5.40515C23.5022 5.22529 23.6161 5.23135 23.9254 5.26416Z" fill="white"/>
<path d="M11.8264 5.26414C12.06 5.39908 12.1493 5.48189 12.2366 5.73838C12.2366 6.00231 12.1918 6.07911 12.0315 6.28953C11.8453 6.43615 11.6467 6.5608 11.4462 6.68687C11.334 6.75964 11.2219 6.83262 11.11 6.90583C11.0563 6.94095 11.0026 6.97607 10.9473 7.01225C9.2155 8.16807 7.9925 9.81248 7.04443 11.6357C6.94405 11.8077 6.86892 11.8844 6.6781 11.9463C6.4119 11.971 6.25117 11.8878 6.02869 11.7497C5.89381 11.5368 5.91194 11.3157 5.94751 11.0747C6.036 10.8418 6.15533 10.6316 6.28077 10.4167C6.31477 10.3569 6.34877 10.2971 6.38381 10.2354C6.6847 9.71471 7.01651 9.22668 7.38306 8.75047C7.42721 8.69108 7.47136 8.63168 7.51684 8.57049C8.33042 7.52103 10.342 5.11861 11.8264 5.26414Z" fill="white"/>
<path d="M7.04105 21.6016C7.26066 21.8384 7.4087 22.1008 7.56229 22.3834C8.0399 23.2372 8.61801 23.9759 9.2969 24.6777C9.35744 24.7418 9.41798 24.8059 9.48035 24.8719C9.84718 25.2515 10.2292 25.5847 10.6538 25.8965C10.9313 26.1008 10.9313 26.1008 11.0059 26.25C11.0394 26.5462 11.0385 26.682 10.8649 26.9293C10.6107 27.1078 10.4918 27.103 10.1856 27.0703C9.97569 26.9496 9.97569 26.9496 9.76688 26.7798C9.71012 26.7339 9.71012 26.7339 9.65222 26.6871C8.34659 25.6167 7.25966 24.3853 6.40445 22.926C6.37853 22.8832 6.35261 22.8404 6.32591 22.7963C6.14233 22.4693 6.12153 22.2394 6.15237 21.875C6.3603 21.4888 6.64285 21.5038 7.04105 21.6016Z" fill="white"/>
<path d="M28.9158 21.602C29.1058 21.7725 29.1805 21.8746 29.2124 22.1288C29.1828 22.4159 29.0688 22.6231 28.9243 22.8666C28.8829 22.938 28.8829 22.938 28.8407 23.0109C28.5536 23.4975 28.2319 23.9551 27.8904 24.4047C27.8453 24.4653 27.8001 24.5258 27.7537 24.5882C27.0931 25.4358 26.1971 26.5167 25.2244 27.0024C24.9204 27.0307 24.7977 27.0387 24.545 26.8614C24.4041 26.6606 24.4041 26.6606 24.3613 26.4213C24.4417 25.9713 24.9088 25.6959 25.2457 25.4088C26.341 24.4636 27.269 23.354 27.9459 22.0677C28.1834 21.63 28.4084 21.4452 28.9158 21.602Z" fill="white"/>
</svg>
